<svg xmlns="http://www.w3.org/2000/svg" xmlns:xlink="http://www.w3.org/1999/xlink" contentStyleType="text/css" data-diagram-type="CLASS" height="994px" preserveAspectRatio="none" style="width:1690px;height:994px;background:#FFFFFF;" version="1.1" viewBox="0 0 1690 994" width="1690px" zoomAndPan="magnify"><title>Terminal Calypso Certificate Legacy Prime API 0.1.+ (2025-12-19)</title><defs><filter height="1" id="bsi37ynde18pv0" width="1" x="0" y="0"><feFlood flood-color="#FFFF00" result="flood"/><feComposite in="SourceGraphic" in2="flood" operator="over"/></filter></defs><g><g class="title" data-source-line="1"><text fill="#000000" font-family="sans-serif" font-size="14" font-weight="bold" lengthAdjust="spacing" textLength="431.4707" x="622.2646" y="25.1074">Terminal Calypso Certificate Legacy Prime API 0.1.+ (2025-12-19)</text></g><g class="legend" data-source-line="54"><rect fill="#DDDDDD" height="65.8633" rx="7.5" ry="7.5" style="stroke:#000000;stroke-width:1;" width="177.627" x="749.1865" y="51.6211"/><text fill="#000000" font-family="sans-serif" font-size="14" lengthAdjust="spacing" text-decoration="underline" textLength="86.3857" x="754.1865" y="71.7285">Colors legend</text><text fill="#000000" font-family="sans-serif" font-size="14" lengthAdjust="spacing" textLength="3.8896" x="844.4619" y="71.7285">:</text><ellipse cx="759.6865" cy="86.3633" fill="#000000" rx="2.5" ry="2.5"/><text fill="#000000" font-family="sans-serif" font-size="14" lengthAdjust="spacing" text-decoration="underline" textLength="147.8477" x="766.1865" y="90.3496">External API references</text><text fill="#000000" font-family="sans-serif" font-size="14" lengthAdjust="spacing" textLength="3.8896" x="917.9238" y="90.3496">:</text><rect fill="#000000" height="3.5" width="3.5" x="763.1865" y="102.4844"/><text fill="#000000" filter="url(#bsi37ynde18pv0)" font-family="sans-serif" font-size="14" lengthAdjust="spacing" textLength="77.8066" x="770.1865" y="108.9707">java.security</text></g><!--cluster api--><g class="cluster" data-entity="api" data-source-line="60" data-uid="ent0002" id="cluster_api"><path d="M8.5,136.498 L217.2715,136.498 A3.75,3.75 0 0 1 219.7715,138.998 L226.7715,161.1191 L1680.5,161.1191 A2.5,2.5 0 0 1 1683,163.6191 L1683,984.998 A2.5,2.5 0 0 1 1680.5,987.498 L8.5,987.498 A2.5,2.5 0 0 1 6,984.998 L6,138.998 A2.5,2.5 0 0 1 8.5,136.498" fill="#F8F9F9" style="stroke:#000000;stroke-width:1.5;"/><line style="stroke:#000000;stroke-width:1.5;" x1="6" x2="226.7715" y1="161.1191" y2="161.1191"/><text fill="#000000" font-family="sans-serif" font-size="14" font-weight="bold" lengthAdjust="spacing" textLength="207.7715" x="10" y="153.6055">calypso.certificate.legacyprime</text></g><!--cluster spi--><g class="cluster" data-entity="spi" data-source-line="77" data-uid="ent0006" id="cluster_spi"><path d="M1100.5,383.998 L1121.7275,383.998 A3.75,3.75 0 0 1 1124.2275,386.498 L1131.2275,408.6191 L1581.5,408.6191 A2.5,2.5 0 0 1 1584,411.1191 L1584,501.498 A2.5,2.5 0 0 1 1581.5,503.998 L1100.5,503.998 A2.5,2.5 0 0 1 1098,501.498 L1098,386.498 A2.5,2.5 0 0 1 1100.5,383.998" fill="#F2F3F4" style="stroke:#000000;stroke-width:1.5;"/><line style="stroke:#000000;stroke-width:1.5;" x1="1098" x2="1131.2275" y1="408.6191" y2="408.6191"/><text fill="#000000" font-family="sans-serif" font-size="14" font-weight="bold" lengthAdjust="spacing" textLength="20.2275" x="1102" y="401.1055">spi</text></g><!--class ApiProperties--><g class="entity" data-entity="ApiProperties" data-source-line="61" data-uid="ent0003" id="entity_ApiProperties"><rect fill="#E9F7EF" height="66.6211" rx="2.5" ry="2.5" style="stroke:#27AE60;stroke-width:2;" width="355.0127" x="1309.5" y="210.498"/><ellipse cx="1324.5" cy="226.498" fill="#ADD1B2" rx="11" ry="11" style="stroke:#ADD1B2;stroke-width:1;"/><path d="M1327.2656,222.373 Q1327.4219,222.1543 1327.6094,222.0449 Q1327.7969,221.9355 1328.0156,221.9355 Q1328.3906,221.9355 1328.625,222.2012 Q1328.8594,222.4512 1328.8594,223.0605 L1328.8594,224.5137 Q1328.8594,225.123 1328.625,225.3887 Q1328.3906,225.6543 1328.0156,225.6543 Q1327.6719,225.6543 1327.4688,225.4512 Q1327.2656,225.2637 1327.1563,224.748 Q1327.1094,224.3887 1326.9219,224.2012 Q1326.5938,223.8262 1325.9844,223.6074 Q1325.375,223.3887 1324.75,223.3887 Q1323.9844,223.3887 1323.3438,223.7168 Q1322.7188,224.0449 1322.2188,224.7949 Q1321.7344,225.5449 1321.7344,226.5762 L1321.7344,227.6699 Q1321.7344,228.9043 1322.625,229.7324 Q1323.5156,230.5449 1325.1094,230.5449 Q1326.0469,230.5449 1326.7031,230.2949 Q1327.0938,230.1387 1327.5156,229.7012 Q1327.7813,229.4355 1327.9219,229.3574 Q1328.0781,229.2793 1328.2813,229.2793 Q1328.6094,229.2793 1328.8594,229.5449 Q1329.125,229.7949 1329.125,230.1387 Q1329.125,230.4824 1328.7813,230.8887 Q1328.2813,231.4668 1327.4844,231.7949 Q1326.4063,232.248 1325.1094,232.248 Q1323.5938,232.248 1322.3906,231.623 Q1321.4063,231.123 1320.7188,230.0605 Q1320.0313,228.9824 1320.0313,227.7012 L1320.0313,226.5449 Q1320.0313,225.2168 1320.6406,224.0762 Q1321.2656,222.9199 1322.3594,222.3105 Q1323.4531,221.6855 1324.6875,221.6855 Q1325.4219,221.6855 1326.0625,221.8574 Q1326.7188,222.0137 1327.2656,222.373 Z " fill="#000000"/><ellipse cx="1343.5" cy="225.998" fill="#84BE84" rx="3" ry="3" style="stroke:#038048;stroke-width:1;"/><text fill="#000000" font-family="sans-serif" font-size="14" font-weight="bold" lengthAdjust="spacing" textLength="28.7793" x="1349.5" y="232.2949">final</text><text fill="#000000" font-family="sans-serif" font-size="14" lengthAdjust="spacing" textLength="279.3438" x="1382.1689" y="232.2949">CalypsoCertificateLegacyPrimeApiProperties</text><line style="stroke:#27AE60;stroke-width:2;" x1="1310.5" x2="1663.5127" y1="242.498" y2="242.498"/><ellipse cx="1320.5" cy="257.3086" fill="none" rx="3" ry="3" style="stroke:#038048;stroke-width:1;"/><text fill="#000000" font-family="sans-serif" font-size="14" font-weight="bold" lengthAdjust="spacing" text-decoration="underline" textLength="28.7793" x="1329.5" y="261.6055">final</text><text fill="#000000" font-family="sans-serif" font-size="14" lengthAdjust="spacing" text-decoration="underline" textLength="103.4756" x="1362.1689" y="261.6055">String VERSION</text><line style="stroke:#27AE60;stroke-width:2;" x1="1310.5" x2="1663.5127" y1="269.1191" y2="269.1191"/></g><!--class CalypsoCertificateLegacyPrimeApiFactory--><g class="entity" data-entity="CalypsoCertificateLegacyPrimeApiFactory" data-source-line="64" data-uid="ent0004" id="entity_CalypsoCertificateLegacyPrimeApiFactory"><rect fill="#EBF5FB" height="141.1055" rx="2.5" ry="2.5" style="stroke:#3498DB;stroke-width:2;" width="1239.8643" x="29" y="173.498"/><ellipse cx="508.0757" cy="189.498" fill="#B4A7E5" rx="11" ry="11" style="stroke:#B4A7E5;stroke-width:1;"/><path d="M509.0288,186.1387 L509.0288,192.7949 L510.7476,192.7949 Q511.3569,192.7949 511.6226,193.0293 Q511.8882,193.2637 511.8882,193.6543 Q511.8882,194.0293 511.6226,194.2637 Q511.3569,194.498 510.7476,194.498 L505.6069,194.498 Q504.9976,194.498 504.7319,194.2637 Q504.4663,194.0293 504.4663,193.6387 Q504.4663,193.2637 504.7319,193.0293 Q504.9976,192.7949 505.6069,192.7949 L507.3257,192.7949 L507.3257,186.1387 L505.6069,186.1387 Q504.9976,186.1387 504.7319,185.9043 Q504.4663,185.6699 504.4663,185.2793 Q504.4663,184.9043 504.7319,184.6699 Q504.9976,184.4355 505.6069,184.4355 L510.7476,184.4355 Q511.3569,184.4355 511.6226,184.6699 Q511.8882,184.9043 511.8882,185.2793 Q511.8882,185.6699 511.6226,185.9043 Q511.3569,186.1387 510.7476,186.1387 L509.0288,186.1387 Z " fill="#000000"/><ellipse cx="533.5757" cy="188.998" fill="#84BE84" rx="3" ry="3" style="stroke:#038048;stroke-width:1;"/><text fill="#000000" font-family="sans-serif" font-size="14" font-style="italic" lengthAdjust="spacing" textLength="262.2129" x="539.5757" y="195.2949">CalypsoCertificateLegacyPrimeApiFactory</text><line style="stroke:#3498DB;stroke-width:2;" x1="30" x2="1267.8643" y1="205.498" y2="205.498"/><line style="stroke:#3498DB;stroke-width:2;" x1="30" x2="1267.8643" y1="213.498" y2="213.498"/><ellipse cx="40" cy="228.3086" fill="#84BE84" rx="3" ry="3" style="stroke:#038048;stroke-width:1;"/><text fill="#000000" font-family="sans-serif" font-size="14" lengthAdjust="spacing" textLength="494.0947" x="49" y="232.6055">CalypsoCertificateLegacyPrimeStore getCalypsoCertificateLegacyPrimeStore ()</text><text fill="#000000" font-family="sans-serif" font-size="14" lengthAdjust="spacing" textLength="3.8896" x="49" y="251.2266">&#160;</text><ellipse cx="40" cy="265.5508" fill="#84BE84" rx="3" ry="3" style="stroke:#038048;stroke-width:1;"/><text fill="#000000" font-family="sans-serif" font-size="14" lengthAdjust="spacing" textLength="1176.5195" x="49" y="269.8477">CalypsoCaCertificateLegacyPrimeGenerator createCalypsoCaCertificateLegacyPrimeGenerator (byte[] issuerPublicKeyReference, CalypsoCertificateLegacyPrimeSigner caCertificateSigner)</text><text fill="#000000" font-family="sans-serif" font-size="14" lengthAdjust="spacing" textLength="3.8896" x="49" y="288.4688">&#160;</text><ellipse cx="40" cy="302.793" fill="#84BE84" rx="3" ry="3" style="stroke:#038048;stroke-width:1;"/><text fill="#000000" font-family="sans-serif" font-size="14" lengthAdjust="spacing" textLength="1213.8643" x="49" y="307.0898">CalypsoCardCertificateLegacyPrimeGenerator createCalypsoCardCertificateLegacyPrimeGenerator (byte[] issuerPublicKeyReference, CalypsoCertificateLegacyPrimeSigner cardCertificateSigner)</text></g><!--class CalypsoCertificateLegacyPrimeStore--><g class="entity" data-entity="CalypsoCertificateLegacyPrimeStore" data-source-line="71" data-uid="ent0005" id="entity_CalypsoCertificateLegacyPrimeStore"><rect fill="#EBF5FB" height="122.4844" rx="2.5" ry="2.5" style="stroke:#3498DB;stroke-width:2;" width="553.6113" x="23" y="393.498"/><ellipse cx="175.6733" cy="409.498" fill="#B4A7E5" rx="11" ry="11" style="stroke:#B4A7E5;stroke-width:1;"/><path d="M176.6265,406.1387 L176.6265,412.7949 L178.3452,412.7949 Q178.9546,412.7949 179.2202,413.0293 Q179.4858,413.2637 179.4858,413.6543 Q179.4858,414.0293 179.2202,414.2637 Q178.9546,414.498 178.3452,414.498 L173.2046,414.498 Q172.5952,414.498 172.3296,414.2637 Q172.064,414.0293 172.064,413.6387 Q172.064,413.2637 172.3296,413.0293 Q172.5952,412.7949 173.2046,412.7949 L174.9233,412.7949 L174.9233,406.1387 L173.2046,406.1387 Q172.5952,406.1387 172.3296,405.9043 Q172.064,405.6699 172.064,405.2793 Q172.064,404.9043 172.3296,404.6699 Q172.5952,404.4355 173.2046,404.4355 L178.3452,404.4355 Q178.9546,404.4355 179.2202,404.6699 Q179.4858,404.9043 179.4858,405.2793 Q179.4858,405.6699 179.2202,405.9043 Q178.9546,406.1387 178.3452,406.1387 L176.6265,406.1387 Z " fill="#000000"/><ellipse cx="201.1733" cy="408.998" fill="#84BE84" rx="3" ry="3" style="stroke:#038048;stroke-width:1;"/><text fill="#000000" font-family="sans-serif" font-size="14" font-style="italic" lengthAdjust="spacing" textLength="228.7646" x="207.1733" y="415.2949">CalypsoCertificateLegacyPrimeStore</text><line style="stroke:#3498DB;stroke-width:2;" x1="24" x2="575.6113" y1="425.498" y2="425.498"/><line style="stroke:#3498DB;stroke-width:2;" x1="24" x2="575.6113" y1="433.498" y2="433.498"/><ellipse cx="34" cy="448.3086" fill="#84BE84" rx="3" ry="3" style="stroke:#038048;stroke-width:1;"/><text fill="#000000" font-family="sans-serif" font-size="14" lengthAdjust="spacing" textLength="339.3018" x="43" y="452.6055">void addPcaPublicKey (byte[] pcaPublicKeyReference,</text><text fill="#000000" filter="url(#bsi37ynde18pv0)" font-family="sans-serif" font-size="14" lengthAdjust="spacing" textLength="91.041" x="386.1914" y="452.6055">RSAPublicKey</text><text fill="#000000" font-family="sans-serif" font-size="14" lengthAdjust="spacing" textLength="89.4893" x="481.1221" y="452.6055">pcaPublicKey)</text><ellipse cx="34" cy="466.9297" fill="#84BE84" rx="3" ry="3" style="stroke:#038048;stroke-width:1;"/><text fill="#000000" font-family="sans-serif" font-size="14" lengthAdjust="spacing" textLength="523.7285" x="43" y="471.2266">void addPcaPublicKey (byte[] pcaPublicKeyReference, byte[] pcaPublicKeyModulus)</text><text fill="#000000" font-family="sans-serif" font-size="14" lengthAdjust="spacing" textLength="3.8896" x="43" y="489.8477">&#160;</text><ellipse cx="34" cy="504.1719" fill="#84BE84" rx="3" ry="3" style="stroke:#038048;stroke-width:1;"/><text fill="#000000" font-family="sans-serif" font-size="14" lengthAdjust="spacing" textLength="403.8398" x="43" y="508.4688">byte[] addCalypsoCaCertificateLegacyPrime (byte[] caCertificate)</text></g><!--class CalypsoCaCertificateLegacyPrimeGenerator--><g class="entity" data-entity="CalypsoCaCertificateLegacyPrimeGenerator" data-source-line="82" data-uid="ent0008" id="entity_CalypsoCaCertificateLegacyPrimeGenerator"><rect fill="#EBF5FB" height="196.9688" rx="2.5" ry="2.5" style="stroke:#3498DB;stroke-width:2;" width="783.9004" x="138" y="585.998"/><ellipse cx="382.0835" cy="601.998" fill="#B4A7E5" rx="11" ry="11" style="stroke:#B4A7E5;stroke-width:1;"/><path d="M383.0366,598.6387 L383.0366,605.2949 L384.7554,605.2949 Q385.3647,605.2949 385.6304,605.5293 Q385.896,605.7637 385.896,606.1543 Q385.896,606.5293 385.6304,606.7637 Q385.3647,606.998 384.7554,606.998 L379.6147,606.998 Q379.0054,606.998 378.7397,606.7637 Q378.4741,606.5293 378.4741,606.1387 Q378.4741,605.7637 378.7397,605.5293 Q379.0054,605.2949 379.6147,605.2949 L381.3335,605.2949 L381.3335,598.6387 L379.6147,598.6387 Q379.0054,598.6387 378.7397,598.4043 Q378.4741,598.1699 378.4741,597.7793 Q378.4741,597.4043 378.7397,597.1699 Q379.0054,596.9355 379.6147,596.9355 L384.7554,596.9355 Q385.3647,596.9355 385.6304,597.1699 Q385.896,597.4043 385.896,597.7793 Q385.896,598.1699 385.6304,598.4043 Q385.3647,598.6387 384.7554,598.6387 L383.0366,598.6387 Z " fill="#000000"/><ellipse cx="407.5835" cy="601.498" fill="#84BE84" rx="3" ry="3" style="stroke:#038048;stroke-width:1;"/><text fill="#000000" font-family="sans-serif" font-size="14" font-style="italic" lengthAdjust="spacing" textLength="276.2334" x="413.5835" y="607.7949">CalypsoCaCertificateLegacyPrimeGenerator</text><line style="stroke:#3498DB;stroke-width:2;" x1="139" x2="920.9004" y1="617.998" y2="617.998"/><line style="stroke:#3498DB;stroke-width:2;" x1="139" x2="920.9004" y1="625.998" y2="625.998"/><ellipse cx="149" cy="640.8086" fill="#84BE84" rx="3" ry="3" style="stroke:#038048;stroke-width:1;"/><text fill="#000000" font-family="sans-serif" font-size="14" lengthAdjust="spacing" textLength="577.377" x="158" y="645.1055">CalypsoCaCertificateLegacyPrimeGenerator withCaPublicKey (byte[] caPublicKeyReference,</text><text fill="#000000" filter="url(#bsi37ynde18pv0)" font-family="sans-serif" font-size="14" lengthAdjust="spacing" textLength="91.041" x="739.2666" y="645.1055">RSAPublicKey</text><text fill="#000000" font-family="sans-serif" font-size="14" lengthAdjust="spacing" textLength="81.7031" x="834.1973" y="645.1055">caPublicKey)</text><ellipse cx="149" cy="659.4297" fill="#84BE84" rx="3" ry="3" style="stroke:#038048;stroke-width:1;"/><text fill="#000000" font-family="sans-serif" font-size="14" lengthAdjust="spacing" textLength="537.6738" x="158" y="663.7266">CalypsoCaCertificateLegacyPrimeGenerator withStartDate (int year, int month, int day)</text><ellipse cx="149" cy="678.0508" fill="#84BE84" rx="3" ry="3" style="stroke:#038048;stroke-width:1;"/><text fill="#000000" font-family="sans-serif" font-size="14" lengthAdjust="spacing" textLength="533.0186" x="158" y="682.3477">CalypsoCaCertificateLegacyPrimeGenerator withEndDate (int year, int month, int day)</text><ellipse cx="149" cy="696.6719" fill="#84BE84" rx="3" ry="3" style="stroke:#038048;stroke-width:1;"/><text fill="#000000" font-family="sans-serif" font-size="14" lengthAdjust="spacing" textLength="570.3838" x="158" y="700.9688">CalypsoCaCertificateLegacyPrimeGenerator withTargetAid (byte[] aid, boolean isTruncated)</text><ellipse cx="149" cy="715.293" fill="#84BE84" rx="3" ry="3" style="stroke:#038048;stroke-width:1;"/><text fill="#000000" font-family="sans-serif" font-size="14" lengthAdjust="spacing" textLength="460.6328" x="158" y="719.5898">CalypsoCaCertificateLegacyPrimeGenerator withCaRights (byte caRights)</text><ellipse cx="149" cy="733.9141" fill="#84BE84" rx="3" ry="3" style="stroke:#038048;stroke-width:1;"/><text fill="#000000" font-family="sans-serif" font-size="14" lengthAdjust="spacing" textLength="460.6602" x="158" y="738.2109">CalypsoCaCertificateLegacyPrimeGenerator withCaScope (byte caScope)</text><text fill="#000000" font-family="sans-serif" font-size="14" lengthAdjust="spacing" textLength="3.8896" x="158" y="756.832">&#160;</text><ellipse cx="149" cy="771.1563" fill="#84BE84" rx="3" ry="3" style="stroke:#038048;stroke-width:1;"/><text fill="#000000" font-family="sans-serif" font-size="14" lengthAdjust="spacing" textLength="106.6133" x="158" y="775.4531">byte[] generate ()</text></g><!--class CalypsoCardCertificateLegacyPrimeGenerator--><g class="entity" data-entity="CalypsoCardCertificateLegacyPrimeGenerator" data-source-line="92" data-uid="ent0009" id="entity_CalypsoCardCertificateLegacyPrimeGenerator"><rect fill="#EBF5FB" height="215.5898" rx="2.5" ry="2.5" style="stroke:#3498DB;stroke-width:2;" width="593.9912" x="957" y="576.498"/><ellipse cx="1099.9048" cy="592.498" fill="#B4A7E5" rx="11" ry="11" style="stroke:#B4A7E5;stroke-width:1;"/><path d="M1100.8579,589.1387 L1100.8579,595.7949 L1102.5767,595.7949 Q1103.186,595.7949 1103.4517,596.0293 Q1103.7173,596.2637 1103.7173,596.6543 Q1103.7173,597.0293 1103.4517,597.2637 Q1103.186,597.498 1102.5767,597.498 L1097.436,597.498 Q1096.8267,597.498 1096.561,597.2637 Q1096.2954,597.0293 1096.2954,596.6387 Q1096.2954,596.2637 1096.561,596.0293 Q1096.8267,595.7949 1097.436,595.7949 L1099.1548,595.7949 L1099.1548,589.1387 L1097.436,589.1387 Q1096.8267,589.1387 1096.561,588.9043 Q1096.2954,588.6699 1096.2954,588.2793 Q1096.2954,587.9043 1096.561,587.6699 Q1096.8267,587.4355 1097.436,587.4355 L1102.5767,587.4355 Q1103.186,587.4355 1103.4517,587.6699 Q1103.7173,587.9043 1103.7173,588.2793 Q1103.7173,588.6699 1103.4517,588.9043 Q1103.186,589.1387 1102.5767,589.1387 L1100.8579,589.1387 Z " fill="#000000"/><ellipse cx="1125.4048" cy="591.998" fill="#84BE84" rx="3" ry="3" style="stroke:#038048;stroke-width:1;"/><text fill="#000000" font-family="sans-serif" font-size="14" font-style="italic" lengthAdjust="spacing" textLength="288.6816" x="1131.4048" y="598.2949">CalypsoCardCertificateLegacyPrimeGenerator</text><line style="stroke:#3498DB;stroke-width:2;" x1="958" x2="1549.9912" y1="608.498" y2="608.498"/><line style="stroke:#3498DB;stroke-width:2;" x1="958" x2="1549.9912" y1="616.498" y2="616.498"/><ellipse cx="968" cy="631.3086" fill="#84BE84" rx="3" ry="3" style="stroke:#038048;stroke-width:1;"/><text fill="#000000" font-family="sans-serif" font-size="14" lengthAdjust="spacing" textLength="550.9014" x="977" y="635.6055">CalypsoCardCertificateLegacyPrimeGenerator withCardPublicKey (byte[] cardPublicKey)</text><ellipse cx="968" cy="649.9297" fill="#84BE84" rx="3" ry="3" style="stroke:#038048;stroke-width:1;"/><text fill="#000000" font-family="sans-serif" font-size="14" lengthAdjust="spacing" textLength="550.1221" x="977" y="654.2266">CalypsoCardCertificateLegacyPrimeGenerator withStartDate (int year, int month, int day)</text><ellipse cx="968" cy="668.5508" fill="#84BE84" rx="3" ry="3" style="stroke:#038048;stroke-width:1;"/><text fill="#000000" font-family="sans-serif" font-size="14" lengthAdjust="spacing" textLength="545.4668" x="977" y="672.8477">CalypsoCardCertificateLegacyPrimeGenerator withEndDate (int year, int month, int day)</text><ellipse cx="968" cy="687.1719" fill="#84BE84" rx="3" ry="3" style="stroke:#038048;stroke-width:1;"/><text fill="#000000" font-family="sans-serif" font-size="14" lengthAdjust="spacing" textLength="438.0742" x="977" y="691.4688">CalypsoCardCertificateLegacyPrimeGenerator withCardAid (byte[] aid)</text><ellipse cx="968" cy="705.793" fill="#84BE84" rx="3" ry="3" style="stroke:#038048;stroke-width:1;"/><text fill="#000000" font-family="sans-serif" font-size="14" lengthAdjust="spacing" textLength="567.9912" x="977" y="710.0898">CalypsoCardCertificateLegacyPrimeGenerator withCardSerialNumber (byte[] serialNumber)</text><ellipse cx="968" cy="724.4141" fill="#84BE84" rx="3" ry="3" style="stroke:#038048;stroke-width:1;"/><text fill="#000000" font-family="sans-serif" font-size="14" lengthAdjust="spacing" textLength="533.7979" x="977" y="728.7109">CalypsoCardCertificateLegacyPrimeGenerator withCardStartupInfo (byte[] startupInfo)</text><ellipse cx="968" cy="743.0352" fill="#84BE84" rx="3" ry="3" style="stroke:#038048;stroke-width:1;"/><text fill="#000000" font-family="sans-serif" font-size="14" lengthAdjust="spacing" textLength="417.0742" x="977" y="747.332">CalypsoCardCertificateLegacyPrimeGenerator withIndex (int index)</text><text fill="#000000" font-family="sans-serif" font-size="14" lengthAdjust="spacing" textLength="3.8896" x="977" y="765.9531">&#160;</text><ellipse cx="968" cy="780.2773" fill="#84BE84" rx="3" ry="3" style="stroke:#038048;stroke-width:1;"/><text fill="#000000" font-family="sans-serif" font-size="14" lengthAdjust="spacing" textLength="106.6133" x="977" y="784.5742">byte[] generate ()</text></g><!--class CertificateSigningException--><g class="entity" data-entity="CertificateSigningException" data-source-line="103" data-uid="ent0010" id="entity_CertificateSigningException"><rect fill="#E9F7EF" height="100.4844" rx="2.5" ry="2.5" style="stroke:#27AE60;stroke-width:2;" width="422.0811" x="1043" y="871.498"/><ellipse cx="1142.353" cy="895.1191" fill="#ADD1B2" rx="11" ry="11" style="stroke:#ADD1B2;stroke-width:1;"/><path d="M1145.1187,890.9941 Q1145.2749,890.7754 1145.4624,890.666 Q1145.6499,890.5566 1145.8687,890.5566 Q1146.2437,890.5566 1146.478,890.8223 Q1146.7124,891.0723 1146.7124,891.6816 L1146.7124,893.1348 Q1146.7124,893.7441 1146.478,894.0098 Q1146.2437,894.2754 1145.8687,894.2754 Q1145.5249,894.2754 1145.3218,894.0723 Q1145.1187,893.8848 1145.0093,893.3691 Q1144.9624,893.0098 1144.7749,892.8223 Q1144.4468,892.4473 1143.8374,892.2285 Q1143.228,892.0098 1142.603,892.0098 Q1141.8374,892.0098 1141.1968,892.3379 Q1140.5718,892.666 1140.0718,893.416 Q1139.5874,894.166 1139.5874,895.1973 L1139.5874,896.291 Q1139.5874,897.5254 1140.478,898.3535 Q1141.3687,899.166 1142.9624,899.166 Q1143.8999,899.166 1144.5562,898.916 Q1144.9468,898.7598 1145.3687,898.3223 Q1145.6343,898.0566 1145.7749,897.9785 Q1145.9312,897.9004 1146.1343,897.9004 Q1146.4624,897.9004 1146.7124,898.166 Q1146.978,898.416 1146.978,898.7598 Q1146.978,899.1035 1146.6343,899.5098 Q1146.1343,900.0879 1145.3374,900.416 Q1144.2593,900.8691 1142.9624,900.8691 Q1141.4468,900.8691 1140.2437,900.2441 Q1139.2593,899.7441 1138.5718,898.6816 Q1137.8843,897.6035 1137.8843,896.3223 L1137.8843,895.166 Q1137.8843,893.8379 1138.4937,892.6973 Q1139.1187,891.541 1140.2124,890.9316 Q1141.3062,890.3066 1142.5405,890.3066 Q1143.2749,890.3066 1143.9155,890.4785 Q1144.5718,890.6348 1145.1187,890.9941 Z " fill="#000000"/><ellipse cx="1167.853" cy="894.6191" fill="#84BE84" rx="3" ry="3" style="stroke:#038048;stroke-width:1;"/><text fill="#000000" font-family="sans-serif" font-size="14" lengthAdjust="spacing" textLength="129.1855" x="1211.1978" y="891.6055">&#171;RuntimeException&#187;</text><text fill="#000000" font-family="sans-serif" font-size="14" font-weight="bold" lengthAdjust="spacing" textLength="28.7793" x="1173.853" y="910.2266">final</text><text fill="#000000" font-family="sans-serif" font-size="14" lengthAdjust="spacing" textLength="171.2061" x="1206.522" y="910.2266">CertificateSigningException</text><line style="stroke:#27AE60;stroke-width:2;" x1="1044" x2="1464.0811" y1="918.7402" y2="918.7402"/><line style="stroke:#27AE60;stroke-width:2;" x1="1044" x2="1464.0811" y1="926.7402" y2="926.7402"/><ellipse cx="1054" cy="941.5508" fill="#84BE84" rx="3" ry="3" style="stroke:#038048;stroke-width:1;"/><text fill="#000000" font-family="sans-serif" font-size="14" lengthAdjust="spacing" textLength="281.6885" x="1063" y="945.8477">CertificateSigningException (String message)</text><ellipse cx="1054" cy="960.1719" fill="#84BE84" rx="3" ry="3" style="stroke:#038048;stroke-width:1;"/><text fill="#000000" font-family="sans-serif" font-size="14" lengthAdjust="spacing" textLength="396.0811" x="1063" y="964.4688">CertificateSigningException (String message, Throwable cause)</text></g><!--class CertificateConsistencyException--><g class="entity" data-entity="CertificateConsistencyException" data-source-line="107" data-uid="ent0011" id="entity_CertificateConsistencyException"><rect fill="#E9F7EF" height="100.4844" rx="2.5" ry="2.5" style="stroke:#27AE60;stroke-width:2;" width="451.6328" x="22" y="871.498"/><ellipse cx="121.353" cy="895.1191" fill="#ADD1B2" rx="11" ry="11" style="stroke:#ADD1B2;stroke-width:1;"/><path d="M124.1187,890.9941 Q124.2749,890.7754 124.4624,890.666 Q124.6499,890.5566 124.8687,890.5566 Q125.2437,890.5566 125.478,890.8223 Q125.7124,891.0723 125.7124,891.6816 L125.7124,893.1348 Q125.7124,893.7441 125.478,894.0098 Q125.2437,894.2754 124.8687,894.2754 Q124.5249,894.2754 124.3218,894.0723 Q124.1187,893.8848 124.0093,893.3691 Q123.9624,893.0098 123.7749,892.8223 Q123.4468,892.4473 122.8374,892.2285 Q122.228,892.0098 121.603,892.0098 Q120.8374,892.0098 120.1968,892.3379 Q119.5718,892.666 119.0718,893.416 Q118.5874,894.166 118.5874,895.1973 L118.5874,896.291 Q118.5874,897.5254 119.478,898.3535 Q120.3687,899.166 121.9624,899.166 Q122.8999,899.166 123.5562,898.916 Q123.9468,898.7598 124.3687,898.3223 Q124.6343,898.0566 124.7749,897.9785 Q124.9312,897.9004 125.1343,897.9004 Q125.4624,897.9004 125.7124,898.166 Q125.978,898.416 125.978,898.7598 Q125.978,899.1035 125.6343,899.5098 Q125.1343,900.0879 124.3374,900.416 Q123.2593,900.8691 121.9624,900.8691 Q120.4468,900.8691 119.2437,900.2441 Q118.2593,899.7441 117.5718,898.6816 Q116.8843,897.6035 116.8843,896.3223 L116.8843,895.166 Q116.8843,893.8379 117.4937,892.6973 Q118.1187,891.541 119.2124,890.9316 Q120.3062,890.3066 121.5405,890.3066 Q122.2749,890.3066 122.9155,890.4785 Q123.5718,890.6348 124.1187,890.9941 Z " fill="#000000"/><ellipse cx="146.853" cy="894.6191" fill="#84BE84" rx="3" ry="3" style="stroke:#038048;stroke-width:1;"/><text fill="#000000" font-family="sans-serif" font-size="14" lengthAdjust="spacing" textLength="129.1855" x="204.9736" y="891.6055">&#171;RuntimeException&#187;</text><text fill="#000000" font-family="sans-serif" font-size="14" font-weight="bold" lengthAdjust="spacing" textLength="28.7793" x="152.853" y="910.2266">final</text><text fill="#000000" font-family="sans-serif" font-size="14" lengthAdjust="spacing" textLength="200.7578" x="185.522" y="910.2266">CertificateConsistencyException</text><line style="stroke:#27AE60;stroke-width:2;" x1="23" x2="472.6328" y1="918.7402" y2="918.7402"/><line style="stroke:#27AE60;stroke-width:2;" x1="23" x2="472.6328" y1="926.7402" y2="926.7402"/><ellipse cx="33" cy="941.5508" fill="#84BE84" rx="3" ry="3" style="stroke:#038048;stroke-width:1;"/><text fill="#000000" font-family="sans-serif" font-size="14" lengthAdjust="spacing" textLength="311.2402" x="42" y="945.8477">CertificateConsistencyException (String message)</text><ellipse cx="33" cy="960.1719" fill="#84BE84" rx="3" ry="3" style="stroke:#038048;stroke-width:1;"/><text fill="#000000" font-family="sans-serif" font-size="14" lengthAdjust="spacing" textLength="425.6328" x="42" y="964.4688">CertificateConsistencyException (String message, Throwable cause)</text></g><!--class CalypsoCertificateLegacyPrimeSigner--><g class="entity" data-entity="CalypsoCertificateLegacyPrimeSigner" data-source-line="78" data-uid="ent0007" id="entity_CalypsoCertificateLegacyPrimeSigner"><rect fill="#FDEDEC" height="66.6211" rx="2.5" ry="2.5" style="stroke:#E74C3C;stroke-width:2;" width="453.2393" x="1114.5" y="420.998"/><ellipse cx="1213.4839" cy="436.998" fill="#B4A7E5" rx="11" ry="11" style="stroke:#B4A7E5;stroke-width:1;"/><path d="M1214.437,433.6387 L1214.437,440.2949 L1216.1558,440.2949 Q1216.7651,440.2949 1217.0308,440.5293 Q1217.2964,440.7637 1217.2964,441.1543 Q1217.2964,441.5293 1217.0308,441.7637 Q1216.7651,441.998 1216.1558,441.998 L1211.0151,441.998 Q1210.4058,441.998 1210.1401,441.7637 Q1209.8745,441.5293 1209.8745,441.1387 Q1209.8745,440.7637 1210.1401,440.5293 Q1210.4058,440.2949 1211.0151,440.2949 L1212.7339,440.2949 L1212.7339,433.6387 L1211.0151,433.6387 Q1210.4058,433.6387 1210.1401,433.4043 Q1209.8745,433.1699 1209.8745,432.7793 Q1209.8745,432.4043 1210.1401,432.1699 Q1210.4058,431.9355 1211.0151,431.9355 L1216.1558,431.9355 Q1216.7651,431.9355 1217.0308,432.1699 Q1217.2964,432.4043 1217.2964,432.7793 Q1217.2964,433.1699 1217.0308,433.4043 Q1216.7651,433.6387 1216.1558,433.6387 L1214.437,433.6387 Z " fill="#000000"/><ellipse cx="1238.9839" cy="436.498" fill="#84BE84" rx="3" ry="3" style="stroke:#038048;stroke-width:1;"/><text fill="#000000" font-family="sans-serif" font-size="14" font-style="italic" lengthAdjust="spacing" textLength="235.7715" x="1244.9839" y="442.7949">CalypsoCertificateLegacyPrimeSigner</text><line style="stroke:#E74C3C;stroke-width:2;" x1="1115.5" x2="1566.7393" y1="452.998" y2="452.998"/><line style="stroke:#E74C3C;stroke-width:2;" x1="1115.5" x2="1566.7393" y1="460.998" y2="460.998"/><ellipse cx="1125.5" cy="475.8086" fill="#84BE84" rx="3" ry="3" style="stroke:#038048;stroke-width:1;"/><text fill="#000000" font-family="sans-serif" font-size="14" lengthAdjust="spacing" textLength="427.2393" x="1134.5" y="480.1055">byte[] generateSignedCertificate (byte[] data, byte[] recoverableData)</text></g><!--link CalypsoCertificateLegacyPrimeApiFactory to CalypsoCertificateLegacyPrimeStore--><g class="link" data-entity-1="CalypsoCertificateLegacyPrimeApiFactory" data-entity-2="CalypsoCertificateLegacyPrimeStore" data-source-line="115" data-uid="lnk12" id="link_CalypsoCertificateLegacyPrimeApiFactory_CalypsoCertificateLegacyPrimeStore"><path codeLine="115" d="M532.3,314.718 C489.6,340.228 446.8406,365.7705 405.6706,390.3705" fill="none" id="CalypsoCertificateLegacyPrimeApiFactory-to-CalypsoCertificateLegacyPrimeStore" style="stroke:#3498DB;stroke-width:2;stroke-dasharray:7,7;"/><polygon fill="#3498DB" points="400.52,393.448,410.2976,392.2654,404.8121,390.8834,406.1941,385.3979,400.52,393.448" style="stroke:#3498DB;stroke-width:2;"/><polygon fill="#000000" points="474.7077,356.7079,483.9799,354.5919,480.9653,349.546,474.7077,356.7079" style="stroke:#000000;stroke-width:1;"/><text fill="#000000" font-family="sans-serif" font-size="13" lengthAdjust="spacing" textLength="42.6372" x="488" y="359.5264">provide</text></g><!--link CalypsoCertificateLegacyPrimeApiFactory to CalypsoCaCertificateLegacyPrimeGenerator--><g class="link" data-entity-1="CalypsoCertificateLegacyPrimeApiFactory" data-entity-2="CalypsoCaCertificateLegacyPrimeGenerator" data-source-line="116" data-uid="lnk13" id="link_CalypsoCertificateLegacyPrimeApiFactory_CalypsoCaCertificateLegacyPrimeGenerator"><path codeLine="116" d="M638.48,314.718 C629.35,369.818 614.53,448.368 595,515.498 C588.27,538.618 581.8415,557.4194 573.1615,580.2594" fill="none" id="CalypsoCertificateLegacyPrimeApiFactory-to-CalypsoCaCertificateLegacyPrimeGenerator" style="stroke:#3498DB;stroke-width:2;stroke-dasharray:7,7;"/><polygon fill="#3498DB" points="571.03,585.868,577.9663,578.8761,572.8062,581.1942,570.4881,576.0341,571.03,585.868" style="stroke:#3498DB;stroke-width:2;"/><polygon fill="#000000" points="630.8057,459.4988,635.8201,451.4176,630.1124,450.0136,630.8057,459.4988" style="stroke:#000000;stroke-width:1;"/><text fill="#000000" font-family="sans-serif" font-size="13" lengthAdjust="spacing" textLength="36.1309" x="641" y="460.0264">create</text></g><!--link CalypsoCertificateLegacyPrimeApiFactory to CalypsoCardCertificateLegacyPrimeGenerator--><g class="link" data-entity-1="CalypsoCertificateLegacyPrimeApiFactory" data-entity-2="CalypsoCardCertificateLegacyPrimeGenerator" data-source-line="117" data-uid="lnk14" id="link_CalypsoCertificateLegacyPrimeApiFactory_CalypsoCardCertificateLegacyPrimeGenerator"><path codeLine="117" d="M745.2,314.718 C842.38,385.158 988.9718,491.4069 1101.3918,572.8869" fill="none" id="CalypsoCertificateLegacyPrimeApiFactory-to-CalypsoCardCertificateLegacyPrimeGenerator" style="stroke:#3498DB;stroke-width:2;stroke-dasharray:7,7;"/><polygon fill="#3498DB" points="1106.25,576.408,1101.3102,567.8876,1102.2015,573.4738,1096.6153,574.3652,1106.25,576.408" style="stroke:#3498DB;stroke-width:2;"/><polygon fill="#000000" points="1030.0484,457.5779,1024.4495,449.89,1021,454.6493,1030.0484,457.5779" style="stroke:#000000;stroke-width:1;"/><text fill="#000000" font-family="sans-serif" font-size="13" lengthAdjust="spacing" textLength="36.1309" x="1035" y="460.0264">create</text></g><!--link CalypsoCertificateLegacyPrimeApiFactory to CalypsoCertificateLegacyPrimeSigner--><g class="link" data-entity-1="CalypsoCertificateLegacyPrimeApiFactory" data-entity-2="CalypsoCertificateLegacyPrimeSigner" data-source-line="118" data-uid="lnk15" id="link_CalypsoCertificateLegacyPrimeApiFactory_CalypsoCertificateLegacyPrimeSigner"><path codeLine="118" d="M902.63,314.508 C970.51,333.768 1043.71,355.138 1111,375.998 C1156.28,390.038 1200.5035,404.7546 1242.2135,419.0346" fill="none" id="CalypsoCertificateLegacyPrimeApiFactory-to-CalypsoCertificateLegacyPrimeSigner" style="stroke:#27AE60;stroke-width:2;stroke-dasharray:7,7;"/><polygon fill="#27AE60" points="1247.89,420.978,1240.6708,414.2785,1243.1596,419.3585,1238.0796,421.8472,1247.89,420.978" style="stroke:#27AE60;stroke-width:2;"/><polygon fill="#000000" points="1070.7787,355.6145,1062.9985,350.1447,1061.2693,355.7624,1070.7787,355.6145" style="stroke:#000000;stroke-width:1;"/><text fill="#000000" font-family="sans-serif" font-size="13" lengthAdjust="spacing" textLength="20.96" x="1075" y="359.5264">use</text></g><!--link CalypsoCaCertificateLegacyPrimeGenerator to CertificateSigningException--><g class="link" data-entity-1="CalypsoCaCertificateLegacyPrimeGenerator" data-entity-2="CertificateSigningException" data-source-line="120" data-uid="lnk16" id="link_CalypsoCaCertificateLegacyPrimeGenerator_CertificateSigningException"><path codeLine="120" d="M830.49,783.028 C924.35,813.498 1018.183,843.956 1097.163,869.586" fill="none" id="CalypsoCaCertificateLegacyPrimeGenerator-to-CertificateSigningException" style="stroke:#2C3E50;stroke-width:2;stroke-dasharray:7,7;"/><polygon fill="#2C3E50" points="1102.87,871.438,1095.5441,864.8554,1098.1141,869.8947,1093.0748,872.4647,1102.87,871.438" style="stroke:#2C3E50;stroke-width:2;"/><polygon fill="#000000" points="1008.7558,833.6872,1001.0598,828.0994,999.2452,833.6901,1008.7558,833.6872" style="stroke:#000000;stroke-width:1;"/><text fill="#000000" font-family="sans-serif" font-size="13" lengthAdjust="spacing" textLength="31.7891" x="1013" y="837.5264">throw</text></g><!--link CalypsoCardCertificateLegacyPrimeGenerator to CertificateSigningException--><g class="link" data-entity-1="CalypsoCardCertificateLegacyPrimeGenerator" data-entity-2="CertificateSigningException" data-source-line="122" data-uid="lnk17" id="link_CalypsoCardCertificateLegacyPrimeGenerator_CertificateSigningException"><path codeLine="122" d="M1254,792.678 C1254,820.158 1254,842.398 1254,865.318" fill="none" id="CalypsoCardCertificateLegacyPrimeGenerator-to-CertificateSigningException" style="stroke:#2C3E50;stroke-width:2;stroke-dasharray:7,7;"/><polygon fill="#2C3E50" points="1254,871.318,1258,862.318,1254,866.318,1250,862.318,1254,871.318" style="stroke:#2C3E50;stroke-width:2;"/><polygon fill="#000000" points="1259,837.1436,1261.9389,828.0985,1256.0611,828.0985,1259,837.1436" style="stroke:#000000;stroke-width:1;"/><text fill="#000000" font-family="sans-serif" font-size="13" lengthAdjust="spacing" textLength="31.7891" x="1268" y="837.5264">throw</text></g><!--link CalypsoCertificateLegacyPrimeStore to CertificateConsistencyException--><g class="link" data-entity-1="CalypsoCertificateLegacyPrimeStore" data-entity-2="CertificateConsistencyException" data-source-line="124" data-uid="lnk18" id="link_CalypsoCertificateLegacyPrimeStore_CertificateConsistencyException"><path codeLine="124" d="M135.13,515.608 C110.75,531.668 88.86,551.678 74,576.498 C24.67,658.858 30.67,706.828 74,792.498 C90.42,824.958 114.4123,847.8332 144.0423,867.9032" fill="none" id="CalypsoCertificateLegacyPrimeStore-to-CertificateConsistencyException" style="stroke:#2C3E50;stroke-width:2;stroke-dasharray:7,7;"/><polygon fill="#2C3E50" points="149.01,871.268,143.8018,862.909,144.8703,868.464,139.3153,869.5325,149.01,871.268" style="stroke:#2C3E50;stroke-width:2;"/><polygon fill="#000000" points="79.1264,689.642,81.8357,680.5254,75.9597,680.6741,79.1264,689.642" style="stroke:#000000;stroke-width:1;"/><text fill="#000000" font-family="sans-serif" font-size="13" lengthAdjust="spacing" textLength="31.7891" x="88" y="690.0264">throw</text></g><!--link CalypsoCertificateLegacyPrimeSigner to CertificateSigningException--><g class="link" data-entity-1="CalypsoCertificateLegacyPrimeSigner" data-entity-2="CertificateSigningException" data-source-line="126" data-uid="lnk19" id="link_CalypsoCertificateLegacyPrimeSigner_CertificateSigningException"><path codeLine="126" d="M1455.59,488.088 C1498.96,506.618 1543.88,534.738 1569,576.498 C1618.48,658.768 1622.6,712.858 1569,792.498 C1543.95,829.718 1511.4668,853.6234 1470.4968,872.3534" fill="none" id="CalypsoCertificateLegacyPrimeSigner-to-CertificateSigningException" style="stroke:#2C3E50;stroke-width:2;stroke-dasharray:7,7;"/><polygon fill="#2C3E50" points="1465.04,874.848,1474.8883,874.7439,1469.5873,872.7692,1471.5621,867.4682,1465.04,874.848" style="stroke:#2C3E50;stroke-width:2;"/><polygon fill="#000000" points="1612.1938,689.6398,1614.7799,680.4876,1608.9065,680.7154,1612.1938,689.6398" style="stroke:#000000;stroke-width:1;"/><text fill="#000000" font-family="sans-serif" font-size="13" lengthAdjust="spacing" textLength="31.7891" x="1621" y="690.0264">throw</text></g><!--SRC=[jLXHSzeu47xdL-mr3qtIGX92Ic5IPemjjvccIGRetMHwdOnY2z35M1v9JifqyjzFberjg6ixSCUJMUr-tsgrgvKagVH80zHlGlY2-jW34tlBG30m2PTqIXqi2LoI6NQMSCFfWe1nSm77hPFM6zXl7xVFcYVjvadle45y5wI6Qxo63nzWyWbzGUf3_JLPw96G2w12X4I0Iw0FSoa3qJywcik5vp2FSOUvHBGSjZYQyYE9xps2mwPBcaviNI1IduBE_6RWONdK-CCbK-eJCEy-Zj3j2TZlxPxTsn2tmMxRftPdGtmAw0nrqQPs1wokDRIi3V4Pc8PfM-qDyJiOMkQfsSs9Bo-kFiDff_VU6kQaNyS8sbq3lJlE2IUVHjT_GTiyHMV7KGYRJHZBfQV29UTOWilyrnAU67-09ohdu9CdU2HSKEO3cu8AWI_3XQVC6kA1-W7cU0524awON0R463Bk4cv6WOOzesUPbbseUB6cEEmONNHMg6Yk8rhMoR1Tg8ZM5D6mTwgezVpGbHNvcxCoFIn4h3-PK-V19q907jRWd3tbXnJIBV4yzlGB2dOUPfo5lfimsyX69YecIrIiZc4UMmfoHDmAlFDpJjp1GC5Qo49c2MogYReTbHwDELNvln9cOLAiDo4FLFrK4GTQJNDta6btIxapvVUeqp6i5NqgN_FWtWkh-ICbFP-XVMOFIzbNgaa99Do9T8tv8oV4hwIUHLgQksTtaLtAdUecfPQGhyIRxCiwv4lDRQWyGbNSMZKfvunwkSuSRvNczTK4NKtqPkcHcTv9MQ2tvRixZIWWbj_TGL_B3zK8-g60eYqxsf4vcIfKto4Yqpc4ytirYVvI5yZW7_o8Mu8u8QToUNuK3GtqjXrZDng1ak0PWLTEt0DQJjO3Mfxk0K7K0bu15e032ZyrpnidcZ-yEZoSHXr4qIOz9DT2uWwY6uWHq1lEWcYC20sr9iajKGolANuAYILrdY4Z6KjE_HdyYKRZY-ihhVeS-qDz5PWfTaYb8pPs9EFBB2TpbAMsOsL6O4Pa3QtzWyQlgBZOuYFn2SVA31nEr51jzVtxfIJVliSjbj-4znvrFfFbQ9KMRyjZCLPzb2ZIF4yiAtIUkozqlzhWlvh06jDg2YzFZdZfYlBYaL4NiElUE3ZrClK-o0bphg_LuMXif3f96QxP7Up6LJ3wXRcX5uhyKYPQ2hiYnLAwjTp8XpJTDaH0TJsBT6juKSJZ5LnrnWmWx-yipfTOER_IgPikbZWD0YSEKwUawEHeANaMsUVobAWijx8Dez8uEi2P1GkwPUuKfywBl1bBpAMbmwY20Kk2-Lk8lXRCb_FuqyLRmoFV_V_09vYhVTXGXRAA8wQkoW36r7N1L_l9X8T-XE0URBrM8pgRIn4Jg7Z7VxU76pkgswLe-bz1RQvoFMeWvTbQlRkMvckrUUmsTujoDYSzs1fyXmIiHx1r2jOFpaOAxWOs9fnYxofSt9EiDugSS4VuADvXSE5FMOQUoRO7l_1TyYEECeq-w-TrSeeyFn-5lbIuw8T30gdkjuF1ttxkRBdUtTKHC5NKpQTalFXeMMQmdnmo5-gogLhSmLPMRs4oLxVMg0cfSWa5sN7Q9lC5LPS8trd-Tkf5EfNJBpIg5O8wbhyDmtDq3JA4O0x5aQ5eDEgUsrkjGPrZt5xo4jE7WBF7w38sU055ZgDoVy-OuWFmraJLrROJrQ3MMMmlVglgWrej1T-e7GPDK58XUwlthZx8A2dMmAkdlWjyIPgqDd0Bi_hbs74iMziuhPy7BetRww-Jv2crmhlcjpbrNU9_vz4HfLb6gC1gfaiAsgnT2Bk0QusSSlovaHSPKnoayUJsCdvkNbr7eWUAlTLZyC_dlBmbih5sDFOl]--></g></svg>